<svg width="192" height="80" viewBox="0 0 192 80" fill="none" xmlns="http://www.w3.org/2000/svg">
<rect width="192" height="80" rx="40" fill="url(#paint0_linear_1_592)"/>
<path d="M35.024 58V54.248L51.6 38.736C51.824 38.512 52.5333 37.8213 53.728 36.664C54.96 35.5067 55.856 34.4053 56.416 33.36C56.976 32.2773 57.256 31.2133 57.256 30.168C57.256 28.1147 56.5467 26.416 55.128 25.072C53.7093 23.6907 51.9733 23 49.92 23C47.6053 23 45.664 23.8587 44.096 25.576C42.5653 27.256 41.744 29.4213 41.632 32.072H35.08C35.08 29.2347 35.7147 26.6773 36.984 24.4C38.2533 22.0853 40.008 20.2933 42.248 19.024C44.5253 17.7173 47.0827 17.064 49.92 17.064C52.608 17.064 55.016 17.6053 57.144 18.688C59.272 19.7707 60.9333 21.2827 62.128 23.224C63.36 25.128 63.976 27.2747 63.976 29.664C63.976 31.8293 63.3227 33.8827 62.016 35.824C60.7467 37.7653 58.712 40.0427 55.912 42.656L46 51.728V52.288H63.248V58H35.024ZM81.077 59.232C77.6423 59.232 74.5997 58.336 71.949 56.544C69.2983 54.752 67.2263 52.2693 65.733 49.096C64.277 45.8853 63.549 42.2453 63.549 38.176C63.549 34.1067 64.277 30.4667 65.733 27.256C67.2263 24.0453 69.2983 21.544 71.949 19.752C74.5997 17.96 77.6423 17.064 81.077 17.064C84.5117 17.064 87.5543 17.96 90.205 19.752C92.8557 21.544 94.909 24.0453 96.365 27.256C97.821 30.4667 98.549 34.1067 98.549 38.176C98.549 42.2453 97.8023 45.8853 96.309 49.096C94.853 52.2693 92.7997 54.752 90.149 56.544C87.5357 58.336 84.5117 59.232 81.077 59.232ZM81.077 53.128C83.1677 53.128 84.997 52.4933 86.565 51.224C88.1703 49.9547 89.4023 48.2 90.261 45.96C91.1197 43.6827 91.549 41.088 91.549 38.176C91.549 35.264 91.1197 32.6693 90.261 30.392C89.4023 28.1147 88.1703 26.3413 86.565 25.072C84.997 23.8027 83.1677 23.168 81.077 23.168C78.9863 23.168 77.1383 23.8027 75.533 25.072C73.965 26.3413 72.7517 28.1147 71.893 30.392C71.0343 32.6693 70.605 35.264 70.605 38.176C70.605 41.088 71.0343 43.6827 71.893 45.96C72.7517 48.2 73.965 49.9547 75.533 51.224C77.1383 52.4933 78.9863 53.128 81.077 53.128ZM99.0193 58V54.248L115.595 38.736C115.819 38.512 116.529 37.8213 117.723 36.664C118.955 35.5067 119.851 34.4053 120.411 33.36C120.971 32.2773 121.251 31.2133 121.251 30.168C121.251 28.1147 120.542 26.416 119.123 25.072C117.705 23.6907 115.969 23 113.915 23C111.601 23 109.659 23.8587 108.091 25.576C106.561 27.256 105.739 29.4213 105.627 32.072H99.0753C99.0753 29.2347 99.71 26.6773 100.979 24.4C102.249 22.0853 104.003 20.2933 106.243 19.024C108.521 17.7173 111.078 17.064 113.915 17.064C116.603 17.064 119.011 17.6053 121.139 18.688C123.267 19.7707 124.929 21.2827 126.123 23.224C127.355 25.128 127.971 27.2747 127.971 29.664C127.971 31.8293 127.318 33.8827 126.011 35.824C124.742 37.7653 122.707 40.0427 119.907 42.656L109.995 51.728V52.288H127.243V58H99.0193ZM152.188 58H145.132V49.6H125.812V45.456L141.828 18.352H152.188V43.888H156.948V49.6H152.188V58ZM144.516 24.792L133.372 43.888H145.076V24.792H144.516Z" fill="url(#paint1_linear_1_592)"/>
<defs>
<linearGradient id="paint0_linear_1_592" x1="96" y1="80" x2="96" y2="0" gradientUnits="userSpaceOnUse">
<stop stop-color="#FF5100"/>
<stop offset="1" stop-color="#FF2801"/>
</linearGradient>
<linearGradient id="paint1_linear_1_592" x1="96" y1="12" x2="96" y2="68" gradientUnits="userSpaceOnUse">
<stop stop-color="#FF9A16" stop-opacity="0.8"/>
<stop offset="1" stop-color="#FF9A16" stop-opacity="0"/>
</linearGradient>
</defs>
</svg>
