<svg width="182" height="76" viewBox="0 0 182 76" fill="none" xmlns="http://www.w3.org/2000/svg">
<rect y="0.64035" width="182" height="74.7193" rx="37.3596" fill="url(#paint0_linear_1_590)"/>
<path fill-rule="evenodd" clip-rule="evenodd" d="M143.469 21.0936C143.469 23.4279 141.555 25.3202 139.195 25.3202C136.835 25.3202 134.921 23.4279 134.921 21.0936C134.921 18.7594 136.835 16.867 139.195 16.867C141.555 16.867 143.469 18.7594 143.469 21.0936ZM120.346 33.9589C120.2 34.7563 119.969 35.6757 119.658 36.6913C119.347 37.7049 118.948 38.774 118.476 39.8586C117.963 40.953 117.433 41.9757 116.9 42.8981C116.372 43.8103 115.848 44.5951 115.342 45.2308C114.849 45.85 114.392 46.3078 113.984 46.592C113.676 46.8065 113.506 46.8296 113.447 46.8296C113.42 46.8296 113.398 46.8254 113.374 46.8149C113.323 46.7926 113.151 46.6774 113.076 46.1326C113.007 45.6336 113.044 44.9786 113.187 44.1845C113.332 43.366 113.563 42.439 113.874 41.4289C114.183 40.4206 114.581 39.3518 115.06 38.2521C115.534 37.1619 116.052 36.1443 116.601 35.2273C117.149 34.3113 117.682 33.5349 118.187 32.9186C118.677 32.3172 119.135 31.8663 119.548 31.5784C119.857 31.3636 120.026 31.3404 120.085 31.3404C120.112 31.3404 120.135 31.345 120.156 31.3542C120.207 31.3765 120.379 31.4922 120.455 32.0372C120.524 32.5366 120.487 33.1831 120.346 33.9589ZM99.804 33.959C99.6585 34.7568 99.4271 35.6762 99.1166 36.6913C98.8033 37.7101 98.4039 38.779 97.9346 39.8586C97.4208 40.9547 96.8904 41.9777 96.3586 42.8981C95.83 43.8109 95.3056 44.5958 94.7995 45.2308C94.3075 45.8497 93.8507 46.3074 93.4413 46.5921C93.134 46.8065 92.9642 46.8296 92.9055 46.8296C92.8778 46.8296 92.8556 46.8254 92.832 46.8149C92.7812 46.7926 92.6096 46.6779 92.5344 46.1324C92.4652 45.636 92.5021 44.9806 92.6441 44.1845C92.7893 43.3688 93.0208 42.4419 93.3321 41.4289C93.6407 40.4201 94.0397 39.3512 94.5183 38.252C94.9935 37.1591 95.5114 36.1415 96.0585 35.2274C96.6085 34.3103 97.1418 33.5335 97.6442 32.9189C98.1366 32.316 98.5948 31.8648 99.0058 31.5783C99.3143 31.3636 99.4845 31.3404 99.5433 31.3404C99.5709 31.3404 99.5937 31.345 99.6144 31.3542C99.6654 31.3765 99.8377 31.4922 99.9134 32.0372C99.9819 32.5352 99.9453 33.1819 99.804 33.959ZM77.5466 33.7549C77.4565 34.5637 77.2809 35.489 77.025 36.5047C76.7687 37.5166 76.4168 38.5829 75.9795 39.6739C75.5434 40.7598 75.0788 41.7812 74.5982 42.7096C74.1271 43.6164 73.6506 44.39 73.1819 45.009C72.725 45.6112 72.2957 46.0598 71.9055 46.3429C71.6165 46.5531 71.4569 46.5757 71.4019 46.5757C71.3765 46.5757 71.3552 46.5714 71.3317 46.5608C71.2788 46.5379 71.0985 46.4195 71.0044 45.8661C70.9164 45.3598 70.9083 44.7064 70.9795 43.9236C71.0521 43.1275 71.2181 42.2132 71.4727 41.206C71.7274 40.1978 72.0793 39.1317 72.5187 38.0369C72.9608 36.937 73.4256 35.9158 73.9009 35.0005C74.3698 34.0944 74.8467 33.3113 75.3193 32.6733C75.7738 32.0579 76.2025 31.6022 76.5922 31.3187C76.8812 31.1093 77.0412 31.0866 77.0967 31.0866C77.1228 31.0866 77.1441 31.0908 77.1645 31.0998C77.2196 31.1241 77.4087 31.2472 77.5242 31.8079C77.6275 32.3059 77.6349 32.961 77.5466 33.7549ZM140.871 39.8219C140.648 39.4776 140.218 39.2549 139.775 39.2549C139.354 39.2549 138.977 39.4504 138.739 39.7919C138.468 40.1828 138.132 40.6471 137.742 41.1715C137.314 41.7468 136.852 42.2984 136.37 42.8107C135.89 43.3207 135.422 43.7641 134.98 44.1286C134.522 44.5058 134.226 44.5849 134.058 44.5849C133.941 44.5849 133.723 44.585 133.673 44.0115C133.622 43.4111 133.711 42.6303 133.939 41.6908C134.173 40.7254 134.51 39.6539 134.944 38.5058C135.385 37.3373 135.828 36.2213 136.26 35.1889C136.709 34.1158 137.095 33.2236 137.439 32.4614C137.782 31.7027 137.997 31.209 138.079 30.9931C138.353 30.3681 138.253 29.752 137.789 29.2108C137.363 28.7146 136.792 28.367 136.095 28.1772C135.413 27.9918 134.67 27.9811 133.895 28.1452C133.066 28.3214 132.408 28.7978 131.941 29.5604C131.529 30.2298 130.993 31.2815 130.349 32.6862C129.701 34.0942 129.076 35.6576 128.49 37.3327C128.135 38.3485 127.806 39.3814 127.51 40.4211C127.015 42.1505 125.999 43.6875 124.598 44.8248C124.096 45.232 123.568 45.6159 123.019 45.9724C122.777 46.1305 122.532 46.2768 122.287 46.4107C122.21 46.4531 122.129 46.3601 122.182 46.2904C122.606 45.7365 123.022 45.1381 123.428 44.4985C124.266 43.1817 125.028 41.6047 125.696 39.8115C126.401 37.9127 126.844 36.1809 127.012 34.6635C127.18 33.1275 127.122 31.7871 126.836 30.6796C126.541 29.5363 126.026 28.6368 125.302 28.006C124.554 27.3544 123.628 27.0238 122.552 27.0238C121.284 27.0238 120.118 27.3573 119.087 28.0149C118.383 28.4641 117.731 28.9659 117.139 29.5131C117.09 29.5585 117.05 29.553 117.014 29.4969C116.883 29.2892 116.706 29.0934 116.484 28.9104C115.983 28.5 115.382 28.2251 114.694 28.0936C114.004 27.9635 113.303 28.0106 112.62 28.2335C111.888 28.472 111.343 28.9651 110.998 29.6994C110.337 31.1142 109.639 32.7654 108.923 34.6071C108.209 36.4462 107.512 38.3686 106.852 40.3211C106.779 40.5377 106.706 40.7544 106.634 40.971C106.077 42.636 105.03 44.0973 103.629 45.1662C103.259 45.448 102.877 45.7173 102.484 45.9724C102.242 46.1305 101.997 46.2768 101.752 46.4109C101.674 46.4532 101.593 46.3603 101.647 46.2904C102.07 45.7369 102.486 45.1386 102.893 44.4987C103.73 43.1829 104.493 41.6061 105.161 39.8115C105.866 37.9126 106.309 36.1807 106.476 34.6635C106.645 33.1268 106.587 31.7864 106.301 30.6796C106.007 29.5367 105.491 28.6372 104.767 28.006C104.018 27.3542 103.093 27.0238 102.018 27.0238C100.748 27.0238 99.5826 27.3573 98.5522 28.0147C97.8476 28.4641 97.1951 28.9659 96.6045 29.5128C96.5555 29.558 96.5151 29.5529 96.4796 29.4965C96.348 29.2891 96.1708 29.0933 95.9482 28.9106C95.4486 28.5001 94.8467 28.2254 94.1583 28.0936C93.4684 27.9633 92.767 28.0106 92.0848 28.2335C91.3546 28.4715 90.8087 28.9645 90.4627 29.6997C89.8014 31.1166 89.1032 32.7677 88.3882 34.6072C87.7173 36.3355 87.0646 38.1292 86.4456 39.9446C85.9785 41.3148 85.2792 42.4155 84.2354 43.4239C83.9658 43.6842 83.7031 43.9199 83.4493 44.1286C82.9917 44.5058 82.6957 44.5849 82.5281 44.5849C82.4106 44.5849 82.1921 44.5849 82.1433 44.0112C82.0916 43.4122 82.1811 42.6316 82.4092 41.6908C82.6419 40.7259 82.98 39.6541 83.4134 38.5058C83.8498 37.3493 84.2931 36.2332 84.7298 35.1889C85.1707 34.136 85.5675 33.2182 85.9087 32.4614C86.2582 31.6877 86.4674 31.2069 86.5474 30.9929C86.8232 30.3681 86.7229 29.752 86.2587 29.2108C85.8312 28.7138 85.251 28.3656 84.5329 28.176C83.832 27.9915 83.0907 27.9813 82.3346 28.1458C81.5252 28.3224 80.8776 28.7985 80.4109 29.559C80.3176 29.7096 80.2203 29.8756 80.1171 30.06C80.0805 30.1259 79.9814 30.1111 79.9657 30.0375C79.8769 29.6222 79.7336 29.2296 79.5377 28.8648C79.244 28.321 78.8095 27.8749 78.2461 27.5385C77.6738 27.197 76.9472 27.0238 76.0869 27.0238C74.0585 27.0238 72.0012 27.9537 69.9724 29.7878C67.9807 31.5889 66.33 34.4619 65.0644 38.3297C64.4705 40.1947 64.1223 41.9184 64.0289 43.4536C63.9348 45.0072 64.0611 46.348 64.4035 47.438C64.7564 48.562 65.3198 49.4495 66.0791 50.075C66.8618 50.7216 67.8025 51.0495 68.8746 51.0495C69.6681 51.0495 70.4249 50.9135 71.1244 50.6452C71.8023 50.3849 72.4309 50.0504 72.9925 49.6515C73.4248 49.3446 73.8271 48.9973 74.1926 48.6155C74.4533 48.3434 74.9123 48.4535 75.0197 48.8133C75.1398 49.2166 75.3073 49.5755 75.5215 49.8879C76.0514 50.6585 76.8902 51.0495 78.014 51.0495C79.2592 51.0495 80.5174 50.5857 81.7533 49.6709C82.3296 49.2451 82.8926 48.7805 83.4379 48.281C83.5605 48.1688 83.7538 48.289 83.7056 48.4475C83.3871 49.4995 83.1012 50.4742 82.8438 51.3887C82.4097 52.9259 82.0566 54.2499 81.7941 55.3243C81.4428 56.7653 81.3975 57.157 81.3975 57.3377C81.3975 58.2211 81.6738 58.9741 82.2191 59.5765C82.7459 60.1557 83.3562 60.5713 84.0352 60.8119C84.4818 60.9694 84.9181 61.0492 85.3305 61.0492C85.5589 61.0492 85.784 61.0246 86.0002 60.9762C86.4868 60.8667 87.1044 60.5445 87.2843 59.6306L87.2873 59.6129C87.3589 59.1317 87.4953 58.4795 87.6931 57.6746C87.8984 56.8392 88.1478 55.8885 88.4348 54.8483C88.7178 53.8137 89.0416 52.6613 89.4238 51.3253C89.6002 50.7078 89.7897 50.0607 89.9911 49.3885C90.0324 49.2517 90.2182 49.23 90.29 49.3534C90.3794 49.5072 90.4792 49.6573 90.589 49.8031C91.2086 50.6278 92.1969 51.047 93.527 51.0495C93.7941 51.0613 94.0622 51.0675 94.3242 51.0675H94.3247C96.2805 51.0675 98.1173 50.7341 99.7838 50.0766C101.376 49.4492 102.835 48.6825 104.135 47.7949C104.262 47.7077 104.429 47.8288 104.384 47.9762C104.011 49.1969 103.675 50.3397 103.379 51.3888C102.942 52.9369 102.589 54.2609 102.329 55.3244C101.978 56.7678 101.932 57.1587 101.932 57.3377C101.932 58.2209 102.209 58.9736 102.754 59.5765C103.281 60.1561 103.892 60.5717 104.57 60.8119C105.017 60.9692 105.453 61.0492 105.865 61.0492C106.093 61.0492 106.319 61.0246 106.536 60.9762C107.022 60.8667 107.64 60.5444 107.82 59.6306L107.823 59.6127C107.894 59.1298 108.031 58.4777 108.229 57.6743C108.433 56.8394 108.682 55.8888 108.969 54.8483C109.254 53.8092 109.578 52.657 109.959 51.3253C110.136 50.7065 110.325 50.0594 110.526 49.3881C110.567 49.2513 110.753 49.2295 110.825 49.3529C110.915 49.5069 111.015 49.6571 111.125 49.803C111.743 50.6277 112.732 51.047 114.062 51.0495C114.329 51.0613 114.597 51.0675 114.86 51.0675H114.86C116.815 51.0675 118.652 50.7341 120.319 50.0766C122.185 49.3418 123.871 48.4166 125.331 47.3264C125.579 47.1409 125.821 46.9533 126.057 46.7638C126.165 46.677 126.326 46.755 126.323 46.893C126.323 46.9551 126.322 47.0166 126.322 47.0776C126.322 48.2371 126.567 49.1826 127.052 49.8879C127.582 50.6585 128.421 51.0495 129.544 51.0495C130.787 51.0495 132.054 50.5865 133.308 49.6731C134.501 48.8056 135.626 47.78 136.655 46.6243C137.669 45.4853 138.56 44.3501 139.305 43.2504C140.057 42.1372 140.563 41.3761 140.852 40.9232C141.084 40.5619 141.09 40.1604 140.871 39.8219ZM49.1934 46.0246C49.3687 45.3216 49.5682 44.5841 49.7886 43.825C49.8384 43.6534 50.0916 43.6756 50.1099 43.8531C50.1703 44.4356 50.2464 45.0095 50.3361 45.562C50.4369 46.1874 50.5586 46.8074 50.6983 47.4045C50.8389 48.0027 50.9984 48.584 51.1718 49.1327C51.3484 49.6912 51.5444 50.2323 51.753 50.7405C51.9642 51.255 52.1957 51.7539 52.4414 52.2229C52.6866 52.6927 52.9534 53.1471 53.235 53.5739C53.5168 54.0012 53.8196 54.4087 54.1349 54.7855C54.4552 55.168 54.7931 55.5259 55.1409 55.8495C55.43 56.1187 55.7337 56.3717 56.0432 56.6022C56.4266 56.8874 56.8296 57.145 57.2408 57.3674C57.6591 57.5941 58.096 57.7898 58.5376 57.9486C58.767 58.0312 58.9965 58.104 59.2199 58.1649C59.4511 58.2291 59.6871 58.2845 59.9224 58.3301C60.3962 58.4226 60.8859 58.4801 61.3774 58.501C61.5206 58.507 61.6636 58.5099 61.8069 58.5099C62.1611 58.5099 62.5242 58.4915 62.8865 58.4549C63.3956 58.4031 63.9159 58.314 64.4332 58.1903C64.9508 58.0668 65.4814 57.9051 66.0103 57.7092C66.5398 57.512 67.0782 57.2773 67.6099 57.0113C67.8856 56.8729 68.1576 56.7282 68.4172 56.5815C68.9343 56.2899 69.4582 55.9626 69.9749 55.6086C70.5173 55.237 71.0734 54.8211 71.6271 54.3725C71.8562 54.1864 72.0867 53.9932 72.3162 53.7947C72.7844 53.3904 72.8651 52.7013 72.5029 52.2022C72.1406 51.7029 71.4537 51.5566 70.9149 51.8636C70.749 51.9582 70.5825 52.0485 70.4173 52.1334C69.9857 52.3562 69.5478 52.5511 69.1152 52.7125C68.6927 52.8702 68.2676 52.9989 67.8514 53.0954C67.4432 53.1899 67.0339 53.2556 66.6335 53.2903C66.2394 53.3249 65.8444 53.3303 65.4648 53.3067C65.0851 53.2827 64.708 53.2297 64.3438 53.149C63.9795 53.0682 63.617 52.9572 63.2672 52.8192C62.9124 52.6787 62.5639 52.5084 62.232 52.3127C61.8907 52.1112 61.5574 51.8788 61.2407 51.6214C60.9159 51.3575 60.6005 51.0604 60.3023 50.7387C59.9956 50.4074 59.7015 50.044 59.4281 49.6582C59.1466 49.2618 58.8788 48.8306 58.6319 48.3767C58.3799 47.9138 58.1432 47.415 57.9288 46.8934C57.8214 46.6336 57.7162 46.3588 57.6162 46.0768C57.4591 45.6357 57.313 45.1697 57.182 44.6915C57.0131 44.0735 56.8647 43.4203 56.7412 42.7499C56.6157 42.0679 56.5126 41.3481 56.435 40.6105C56.3673 39.9672 56.3184 39.3013 56.2886 38.6257C56.2846 38.5357 56.3161 38.4912 56.4033 38.464C57.7757 38.0365 59.0982 37.5057 60.3418 36.8834C61.8495 36.1279 63.1854 35.227 64.3123 34.2064C65.4501 33.1772 66.3637 32.0042 67.0284 30.7195C67.6983 29.4232 68.0378 27.9913 68.0378 26.464C68.0378 25.0464 67.6512 23.7801 66.8878 22.7004C66.1383 21.639 65.1445 20.7366 63.9343 20.0181C62.7387 19.308 61.3625 18.7679 59.8436 18.4127C58.3374 18.061 56.792 17.8827 55.2505 17.8827C52.544 17.8827 50.0988 18.3259 47.9831 19.2002C45.8807 20.0693 44.0995 21.1303 42.6888 22.353C41.276 23.5774 40.1853 24.8732 39.4469 26.2042C38.6897 27.5701 38.3214 28.7004 38.3214 29.6597C38.3214 30.7587 38.5818 31.6498 39.0955 32.3078C39.6059 32.9621 40.1769 33.4088 40.7935 33.6359C41.4344 33.8722 42.0581 33.8985 42.6245 33.7165C43.2705 33.5097 43.6263 33.0292 43.6263 32.3636C43.6263 31.4357 43.9041 30.3199 44.4512 29.0469C45.0035 27.7629 45.7898 26.5247 46.7877 25.3668C47.7796 24.2144 48.994 23.2217 50.3977 22.4155C51.767 21.6282 53.3251 21.229 55.0294 21.229C56.6294 21.229 57.8971 21.6049 58.7968 22.3465C59.6857 23.0795 60.1365 24.2662 60.1365 25.8732C60.1365 27.1231 59.8793 28.3098 59.3718 29.4006C58.859 30.5034 58.1769 31.518 57.345 32.4166C56.5103 33.3173 55.556 34.111 54.508 34.7752C53.8689 35.1804 53.2144 35.5351 52.5521 35.8363C52.4199 35.8962 52.2798 35.7698 52.3287 35.6347C52.8251 34.2596 53.3521 32.8464 53.9013 31.4176C54.5797 29.6536 55.3395 27.8415 56.1632 26.025C56.4857 25.313 56.0721 24.487 55.303 24.308C54.0262 24.0106 52.5186 23.9617 50.7807 24.1608C50.0131 24.2488 49.3476 24.7259 49.0253 25.4189C48.0414 27.5344 47.1355 29.6798 46.3265 31.8115C45.3859 34.2922 44.5659 36.6226 43.8896 38.7386C43.2078 40.8702 42.6756 42.7581 42.3077 44.3493C41.9294 45.981 41.7454 47.1266 41.7454 47.8514C41.7454 48.7418 42.0561 49.4982 42.6681 50.0996C43.2515 50.6725 43.919 51.0827 44.652 51.3187C45.3963 51.5574 46.1182 51.6119 46.7902 51.4809C47.5705 51.3293 48.0592 50.8645 48.2052 50.1272C48.2767 49.7119 48.4043 49.143 48.5855 48.4359C48.7691 47.7142 48.9725 46.9101 49.1934 46.0246Z" fill="url(#paint1_linear_1_590)"/>
<defs>
<linearGradient id="paint0_linear_1_590" x1="91" y1="75.3596" x2="91" y2="0.64035" gradientUnits="userSpaceOnUse">
<stop stop-color="#FF5100"/>
<stop offset="1" stop-color="#FF2801"/>
</linearGradient>
<linearGradient id="paint1_linear_1_590" x1="90.8953" y1="16.867" x2="90.8953" y2="61.0492" gradientUnits="userSpaceOnUse">
<stop stop-color="#FF9A16" stop-opacity="0.8"/>
<stop offset="1" stop-color="#FF9A16" stop-opacity="0"/>
</linearGradient>
</defs>
</svg>
