<svg width="174" height="74" viewBox="0 0 174 74" fill="none" xmlns="http://www.w3.org/2000/svg">
<path fill-rule="evenodd" clip-rule="evenodd" d="M173.263 7.89772C173.263 11.7355 170.116 14.8466 166.236 14.8466C162.355 14.8466 159.209 11.7355 159.209 7.89772C159.209 4.06013 162.355 0.948975 166.236 0.948975C170.116 0.948975 173.263 4.06013 173.263 7.89772ZM135.247 29.0492C135.007 30.3602 134.627 31.8718 134.116 33.5415C133.604 35.2078 132.948 36.9656 132.173 38.7487C131.33 40.548 130.458 42.2293 129.581 43.7459C128.714 45.2456 127.851 46.5358 127.02 47.5809C126.209 48.599 125.458 49.3517 124.787 49.8189C124.281 50.1716 124.001 50.2095 123.904 50.2095C123.86 50.2095 123.823 50.2026 123.784 50.1853C123.701 50.1487 123.418 49.9593 123.295 49.0636C123.181 48.2433 123.242 47.1663 123.476 45.8607C123.715 44.5151 124.095 42.9911 124.606 41.3304C125.114 39.6726 125.769 37.9154 126.556 36.1076C127.335 34.3151 128.187 32.6421 129.09 31.1346C129.991 29.6285 130.868 28.352 131.697 27.3389C132.503 26.3502 133.255 25.6088 133.934 25.1355C134.442 24.7824 134.721 24.7443 134.818 24.7443C134.863 24.7443 134.901 24.7517 134.935 24.767C135.018 24.8036 135.301 24.9937 135.426 25.8898C135.539 26.7109 135.479 27.7737 135.247 29.0492ZM101.474 29.0494C101.235 30.3609 100.855 31.8725 100.344 33.5415C99.8292 35.2164 99.1726 36.9738 98.401 38.7487C97.5563 40.5508 96.6842 42.2326 95.81 43.7459C94.9408 45.2466 94.0787 46.537 93.2467 47.5809C92.4378 48.5984 91.6867 49.3509 91.0137 49.8191C90.5085 50.1716 90.2294 50.2095 90.1328 50.2095C90.0873 50.2095 90.0507 50.2026 90.012 50.1853C89.9285 50.1487 89.6462 49.9601 89.5227 49.0632C89.4089 48.2471 89.4695 47.1696 89.7031 45.8607C89.9418 44.5197 90.3224 42.9959 90.8342 41.3304C91.3415 39.6719 91.9976 37.9145 92.7844 36.1074C93.5656 34.3105 94.4171 32.6376 95.3166 31.1347C96.2207 29.627 97.0975 28.3498 97.9236 27.3393C98.7331 26.3481 99.4864 25.6063 100.162 25.1353C100.669 24.7824 100.949 24.7443 101.046 24.7443C101.091 24.7443 101.129 24.7517 101.163 24.767C101.247 24.8036 101.53 24.9937 101.654 25.8898C101.767 26.7086 101.707 27.7718 101.474 29.0494ZM64.8818 28.7135C64.7336 30.0433 64.4449 31.5646 64.0242 33.2345C63.6028 34.8982 63.0242 36.6512 62.3052 38.4449C61.5884 40.2301 60.8244 41.9094 60.0343 43.4358C59.2598 44.9266 58.4765 46.1985 57.7059 47.2161C56.9546 48.2062 56.249 48.9438 55.6074 49.4091C55.1323 49.7547 54.8699 49.7919 54.7793 49.7919C54.7377 49.7919 54.7027 49.7848 54.664 49.7673C54.5769 49.7298 54.2805 49.535 54.1258 48.6252C53.9811 47.7929 53.9679 46.7186 54.085 45.4317C54.2043 44.1229 54.4772 42.6197 54.8959 40.9637C55.3145 39.3062 55.8931 37.5534 56.6156 35.7535C57.3424 33.9453 58.1065 32.2662 58.8879 30.7615C59.6589 29.2718 60.443 27.9843 61.2198 26.9354C61.9671 25.9236 62.6718 25.1744 63.3126 24.7084C63.7878 24.364 64.0507 24.3267 64.1421 24.3267C64.1849 24.3267 64.2199 24.3337 64.2535 24.3484C64.344 24.3884 64.6549 24.5908 64.8448 25.5126C65.0147 26.3314 65.0269 27.4083 64.8818 28.7135ZM168.992 38.6883C168.625 38.1222 167.917 37.7561 167.189 37.7561C166.497 37.7561 165.877 38.0776 165.487 38.639C165.04 39.2817 164.488 40.0449 163.847 40.9071C163.144 41.8529 162.384 42.7598 161.591 43.6021C160.802 44.4405 160.033 45.1695 159.305 45.7688C158.553 46.3889 158.066 46.519 157.791 46.519C157.598 46.519 157.239 46.5191 157.157 45.5763C157.073 44.5892 157.22 43.3055 157.595 41.7608C157.979 40.1737 158.534 38.412 159.246 36.5245C159.972 34.6034 160.7 32.7687 161.41 31.0713C162.149 29.307 162.783 27.8402 163.348 26.5871C163.912 25.3398 164.266 24.5281 164.4 24.1732C164.851 23.1455 164.687 22.1328 163.924 21.2428C163.223 20.4272 162.286 19.8556 161.138 19.5436C160.018 19.2388 158.796 19.2212 157.523 19.4909C156.159 19.7806 155.078 20.564 154.31 21.8176C153.633 22.9182 152.752 24.6473 151.692 26.9568C150.628 29.2716 149.6 31.8418 148.636 34.5958C148.052 36.266 147.512 37.9641 147.024 39.6733C146.212 42.5166 144.541 45.0436 142.237 46.9134C141.413 47.5829 140.545 48.2139 139.642 48.8002C139.243 49.06 138.841 49.3005 138.438 49.5208C138.311 49.5904 138.178 49.4375 138.266 49.3229C138.962 48.4123 139.647 47.4285 140.314 46.3769C141.691 44.2121 142.945 41.6193 144.042 38.6711C145.202 35.5494 145.93 32.7023 146.206 30.2074C146.483 27.6821 146.386 25.4785 145.917 23.6577C145.432 21.778 144.584 20.2992 143.395 19.2621C142.164 18.1908 140.642 17.6474 138.874 17.6474C136.789 17.6474 134.872 18.1956 133.177 19.2768C132.019 20.0152 130.947 20.8403 129.975 21.7399C129.894 21.8146 129.828 21.8056 129.769 21.7133C129.553 21.3718 129.262 21.05 128.897 20.749C128.074 20.0743 127.085 19.6224 125.955 19.4062C124.82 19.1923 123.668 19.2698 122.544 19.6362C121.342 20.0282 120.445 20.8389 119.879 22.0463C118.792 24.3722 117.644 27.0869 116.467 30.1148C115.292 33.1384 114.147 36.2989 113.062 39.509C112.942 39.8651 112.822 40.2213 112.703 40.5774C111.787 43.3149 110.066 45.7173 107.762 47.4746C107.155 47.938 106.527 48.3808 105.881 48.8002C105.482 49.06 105.08 49.3005 104.676 49.521C104.549 49.5906 104.416 49.4379 104.504 49.3229C105.2 48.4129 105.884 47.4293 106.552 46.3773C107.929 44.214 109.183 41.6216 110.282 38.6711C111.441 35.5492 112.169 32.7019 112.444 30.2074C112.722 27.681 112.626 25.4774 112.156 23.6577C111.672 21.7788 110.824 20.2999 109.634 19.2621C108.403 18.1906 106.882 17.6474 105.114 17.6474C103.027 17.6474 101.11 18.1956 99.4163 19.2765C98.2579 20.0152 97.1852 20.8403 96.2141 21.7394C96.1336 21.8138 96.0671 21.8054 96.0088 21.7126C95.7924 21.3716 95.5012 21.0498 95.1352 20.7494C94.3138 20.0745 93.3242 19.6228 92.1925 19.4062C91.0583 19.1919 89.905 19.2698 88.7835 19.6362C87.583 20.0275 86.6855 20.838 86.1167 22.0467C85.0294 24.3762 83.8815 27.0907 82.7061 30.115C81.6031 32.9564 80.5299 35.9053 79.5122 38.89C78.7444 41.1426 77.5946 42.9523 75.8786 44.6103C75.4354 45.0381 75.0035 45.4257 74.5862 45.7688C73.8338 46.3889 73.3472 46.519 73.0716 46.519C72.8785 46.519 72.5193 46.519 72.4389 45.5758C72.354 44.5909 72.5012 43.3076 72.8762 41.7608C73.2588 40.1745 73.8145 38.4124 74.5271 36.5245C75.2446 34.6231 75.9734 32.7882 76.6913 31.0713C77.4162 29.3403 78.0686 27.8314 78.6296 26.5871C79.2042 25.3151 79.5481 24.5247 79.6796 24.1728C80.1331 23.1455 79.9682 22.1328 79.205 21.2428C78.5021 20.4258 77.5483 19.8533 76.3677 19.5416C75.2154 19.2384 73.9966 19.2215 72.7535 19.4919C71.4228 19.7824 70.3581 20.5651 69.5909 21.8153C69.4373 22.0629 69.2774 22.336 69.1077 22.639C69.0476 22.7473 68.8847 22.723 68.8589 22.6021C68.7128 21.9192 68.4772 21.2738 68.1552 20.674C67.6724 19.7801 66.958 19.0467 66.0318 18.4935C65.0908 17.9321 63.8962 17.6474 62.4819 17.6474C59.1471 17.6474 55.7646 19.1762 52.4292 22.1915C49.1548 25.1527 46.4408 29.876 44.3602 36.235C43.3837 39.3012 42.8112 42.1351 42.6577 44.659C42.503 47.2132 42.7106 49.4176 43.2735 51.2097C43.8537 53.0577 44.7801 54.5166 46.0284 55.5451C47.3151 56.6081 48.8618 57.1471 50.6244 57.1471C51.9289 57.1471 53.1731 56.9237 54.3231 56.4824C55.4377 56.0546 56.4712 55.5047 57.3945 54.8488C58.1051 54.3442 58.7666 53.7733 59.3674 53.1455C59.796 52.6981 60.5508 52.8791 60.7272 53.4708C60.9247 54.1338 61.2001 54.7238 61.5523 55.2374C62.4236 56.5044 63.8026 57.1471 65.6502 57.1471C67.6973 57.1471 69.766 56.3847 71.7979 54.8807C72.7452 54.1806 73.6708 53.4168 74.5673 52.5956C74.769 52.4111 75.0867 52.6088 75.0075 52.8694C74.4839 54.5989 74.0139 56.2014 73.5907 57.7049C72.877 60.2321 72.2964 62.409 71.8649 64.1752C71.2874 66.5444 71.2128 67.1884 71.2128 67.4854C71.2128 68.9378 71.6671 70.1758 72.5636 71.1661C73.4297 72.1184 74.4331 72.8017 75.5494 73.1972C76.2837 73.4563 77.0009 73.5873 77.679 73.5873C78.0544 73.5873 78.4246 73.547 78.78 73.4674C79.58 73.2873 80.5954 72.7577 80.8911 71.2551L80.8961 71.226C81.0138 70.4348 81.238 69.3626 81.5632 68.0393C81.9007 66.6659 82.3108 65.1028 82.7826 63.3926C83.248 61.6918 83.7802 59.7972 84.4086 57.6006C84.6987 56.5854 85.0102 55.5215 85.3413 54.4164C85.4091 54.1915 85.7146 54.1558 85.8327 54.3588C85.9797 54.6115 86.1438 54.8584 86.3243 55.0981C87.343 56.4539 88.9678 57.1431 91.1546 57.1471C91.5936 57.1667 92.0346 57.1768 92.4653 57.1768H92.466C95.6815 57.1768 98.7014 56.6286 101.441 55.5477C104.059 54.5162 106.458 53.2557 108.595 51.7964C108.804 51.6531 109.079 51.8522 109.005 52.0945C108.391 54.1014 107.838 55.9802 107.352 57.7051C106.634 60.2503 106.053 62.4269 105.625 64.1754C105.048 66.5486 104.974 67.1911 104.974 67.4854C104.974 68.9374 105.428 70.175 106.325 71.1661C107.191 72.119 108.195 72.8023 109.311 73.1972C110.045 73.4559 110.761 73.5873 111.439 73.5873C111.815 73.5873 112.186 73.547 112.542 73.4674C113.342 73.2873 114.357 72.7575 114.653 71.2551L114.658 71.2256C114.775 70.4318 115 69.3597 115.325 68.0389C115.662 66.6662 116.071 65.1034 116.543 63.3926C117.011 61.6844 117.544 59.7901 118.17 57.6006C118.461 56.5833 118.772 55.5194 119.103 54.4158C119.17 54.1908 119.475 54.155 119.594 54.3578C119.741 54.6111 119.905 54.858 120.086 55.0979C121.104 56.4537 122.729 57.1431 124.916 57.1471C125.355 57.1667 125.796 57.1768 126.227 57.1768H126.227C129.442 57.1768 132.462 56.6286 135.203 55.5477C138.27 54.3396 141.042 52.8185 143.443 51.0262C143.851 50.7212 144.249 50.4128 144.636 50.1013C144.813 49.9586 145.078 50.0868 145.074 50.3137C145.073 50.4157 145.072 50.5169 145.072 50.6171C145.072 52.5234 145.475 54.0779 146.271 55.2374C147.143 56.5044 148.522 57.1471 150.369 57.1471C152.413 57.1471 154.495 56.386 156.557 54.8844C158.518 53.4581 160.369 51.7719 162.06 49.8719C163.727 47.9992 165.193 46.1329 166.416 44.325C167.653 42.4948 168.485 41.2435 168.961 40.499C169.341 39.9049 169.351 39.2447 168.992 38.6883ZM18.2671 48.886C18.5554 47.7303 18.8833 46.5177 19.2457 45.2697C19.3276 44.9877 19.7438 45.0241 19.774 45.3159C19.8733 46.2736 19.9983 47.2171 20.1458 48.1255C20.3116 49.1538 20.5116 50.1729 20.7413 51.1547C20.9725 52.1382 21.2347 53.0939 21.5197 53.996C21.8102 54.9142 22.1323 55.8037 22.4753 56.6392C22.8225 57.4852 23.203 58.3055 23.6071 59.0765C24.0102 59.8489 24.4489 60.596 24.9119 61.2976C25.3751 62.0002 25.8729 62.6701 26.3913 63.2896C26.9179 63.9184 27.4735 64.5069 28.0453 65.0388C28.5205 65.4814 29.0198 65.8974 29.5286 66.2763C30.1589 66.7453 30.8216 67.1687 31.4975 67.5344C32.1853 67.9071 32.9035 68.2288 33.6296 68.4899C34.0068 68.6257 34.3842 68.7455 34.7513 68.8456C35.1314 68.9511 35.5194 69.0422 35.9063 69.1172C36.6853 69.2692 37.4903 69.3638 38.2984 69.3981C38.5338 69.408 38.769 69.4128 39.0045 69.4128C39.587 69.4128 40.1839 69.3825 40.7795 69.3224C41.6166 69.2371 42.4719 69.0907 43.3223 68.8874C44.1734 68.6843 45.0457 68.4184 45.9152 68.0963C46.7858 67.7721 47.671 67.3863 48.5451 66.949C48.9984 66.7214 49.4456 66.4834 49.8724 66.2424C50.7225 65.7629 51.5838 65.2247 52.4333 64.6429C53.3251 64.0318 54.2393 63.3481 55.1496 62.6106C55.5263 62.3045 55.9052 61.987 56.2826 61.6607C57.0523 60.9959 57.1851 59.863 56.5895 59.0424C55.9939 58.2216 54.8646 57.9811 53.9788 58.4857C53.7059 58.6413 53.4323 58.7897 53.1606 58.9293C52.451 59.2957 51.7312 59.6161 51.0199 59.8813C50.3254 60.1407 49.6264 60.3522 48.9422 60.5109C48.271 60.6663 47.5982 60.7743 46.9398 60.8313C46.2919 60.8883 45.6426 60.8971 45.0184 60.8584C44.3942 60.8189 43.7741 60.7317 43.1755 60.599C42.5764 60.4663 41.9805 60.2838 41.4054 60.0568C40.8222 59.8259 40.2492 59.5459 39.7035 59.2242C39.1423 58.8929 38.5943 58.5107 38.0737 58.0875C37.5398 57.6536 37.0211 57.1652 36.5309 56.6364C36.0267 56.0917 35.5432 55.4942 35.0937 54.8599C34.6309 54.2082 34.1905 53.4993 33.7847 52.7531C33.3704 51.992 32.9812 51.1719 32.6288 50.3145C32.4521 49.8873 32.2792 49.4355 32.1147 48.9718C31.8566 48.2467 31.6164 47.4805 31.4009 46.6943C31.1232 45.6782 30.8793 44.6043 30.6762 43.5022C30.4699 42.381 30.3004 41.1976 30.1729 39.9849C30.0616 38.9272 29.9812 37.8325 29.9321 36.7218C29.9255 36.5738 29.9773 36.5006 30.1207 36.456C32.377 35.753 34.5513 34.8805 36.5958 33.8573C39.0747 32.6152 41.2709 31.1341 43.1237 29.456C44.9943 27.764 46.4963 25.8356 47.5891 23.7234C48.6904 21.5922 49.2486 19.2381 49.2486 16.7271C49.2486 14.3964 48.6131 12.3146 47.358 10.5395C46.1257 8.79445 44.4918 7.3109 42.5022 6.12963C40.5366 4.96208 38.2739 4.07413 35.7768 3.49016C33.3005 2.91192 30.7597 2.6188 28.2254 2.6188C23.7758 2.6188 19.7556 3.34751 16.2773 4.78491C12.8208 6.21373 9.8924 7.95818 7.57312 9.96828C5.25036 11.9813 3.45728 14.1117 2.24315 16.2999C0.998288 18.5456 0.392864 20.4039 0.392864 21.9811C0.392864 23.7879 0.820893 25.2529 1.66555 26.3347C2.5046 27.4105 3.44337 28.1449 4.45711 28.5181C5.51085 28.9066 6.53619 28.9499 7.46742 28.6507C8.52947 28.3106 9.11441 27.5207 9.11441 26.4264C9.11441 24.9009 9.57123 23.0664 10.4706 20.9735C11.3786 18.8625 12.6714 16.8269 14.312 14.9232C15.9428 13.0286 17.9393 11.3965 20.247 10.0711C22.4983 8.77671 25.0599 8.12047 27.8619 8.12047C30.4925 8.12047 32.5766 8.73838 34.0558 9.9576C35.5171 11.1627 36.2584 13.1137 36.2584 15.7558C36.2584 17.8108 35.8354 19.7617 35.0012 21.555C34.1581 23.3681 33.0367 25.0363 31.6689 26.5135C30.2965 27.9944 28.7276 29.2993 27.0047 30.3913C25.954 31.0575 24.8779 31.6407 23.7891 32.1357C23.5717 32.2343 23.3414 32.0265 23.4218 31.8043C24.2378 29.5436 25.1043 27.2201 26.0072 24.8711C27.1225 21.971 28.3717 18.9918 29.7259 16.0053C30.2561 14.8347 29.5761 13.4768 28.3118 13.1826C26.2126 12.6936 23.7341 12.6131 20.8768 12.9405C19.6147 13.0851 18.5206 13.8695 17.9907 15.0088C16.3731 18.4868 14.8838 22.0141 13.5537 25.5188C12.0074 29.5972 10.6592 33.4286 9.54727 36.9074C8.42647 40.4119 7.55148 43.5157 6.94663 46.1317C6.32459 48.8143 6.02217 50.6978 6.02217 51.8894C6.02217 53.3533 6.53291 54.5969 7.53911 55.5856C8.49817 56.5275 9.59558 57.2018 10.8008 57.5899C12.0244 57.9824 13.2113 58.0719 14.3161 57.8566C15.599 57.6073 16.4025 56.8431 16.6425 55.6309C16.76 54.9482 16.9699 54.0129 17.2676 52.8504C17.5695 51.6639 17.904 50.3419 18.2671 48.886Z" fill="white"/>
</svg>
