<svg width="383" height="165" viewBox="0 0 383 165" fill="none" xmlns="http://www.w3.org/2000/svg">
<g style="mix-blend-mode:hard-light">
<path fill-rule="evenodd" clip-rule="evenodd" d="M361.224 27.3931C361.224 34.9576 355.021 41.0898 347.374 41.0898C339.725 41.0898 333.523 34.9576 333.523 27.3931C333.523 19.8289 339.725 13.6966 347.374 13.6966C355.021 13.6966 361.224 19.8289 361.224 27.3931ZM286.292 69.0842C285.82 71.6682 285.069 74.6476 284.063 77.9388C283.053 81.2232 281.76 84.6878 280.233 88.2025C278.57 91.749 276.851 95.0631 275.125 98.0523C273.414 101.008 271.714 103.551 270.075 105.611C268.477 107.618 266.997 109.102 265.674 110.023C264.677 110.718 264.126 110.792 263.935 110.792C263.846 110.792 263.775 110.779 263.698 110.745C263.534 110.673 262.976 110.299 262.734 108.534C262.508 106.917 262.629 104.794 263.091 102.221C263.562 99.5685 264.311 96.5646 265.318 93.2911C266.319 90.0236 267.611 86.5601 269.161 82.9966C270.697 79.4636 272.377 76.166 274.156 73.1945C275.931 70.226 277.66 67.71 279.294 65.7131C280.882 63.7642 282.366 62.3028 283.704 61.3699C284.705 60.674 285.256 60.5989 285.446 60.5989C285.534 60.5989 285.609 60.6135 285.676 60.6436C285.841 60.7157 286.398 61.0905 286.645 62.8568C286.868 64.4752 286.749 66.5701 286.292 69.0842ZM219.724 69.0846C219.252 71.6697 218.502 74.6491 217.496 77.9388C216.481 81.2401 215.187 84.704 213.666 88.2025C212.001 91.7546 210.282 95.0695 208.559 98.0523C206.846 101.01 205.146 103.554 203.507 105.611C201.912 107.617 200.432 109.1 199.105 110.023C198.109 110.718 197.559 110.792 197.369 110.792C197.279 110.792 197.207 110.779 197.131 110.745C196.966 110.673 196.41 110.301 196.166 108.533C195.942 106.924 196.061 104.801 196.522 102.221C196.992 99.5775 197.742 96.574 198.751 93.2911C199.751 90.0221 201.044 86.5582 202.595 82.9962C204.135 79.4546 205.813 76.157 207.586 73.1949C209.368 70.223 211.097 67.7055 212.725 65.7138C214.321 63.7601 215.805 62.298 217.137 61.3695C218.137 60.674 218.689 60.5989 218.879 60.5989C218.968 60.5989 219.042 60.6135 219.109 60.6436C219.275 60.7157 219.833 61.0905 220.078 62.8568C220.3 64.4707 220.182 66.5664 219.724 69.0846ZM147.597 68.4228C147.305 71.0439 146.736 74.0425 145.907 77.334C145.076 80.6131 143.936 84.0684 142.519 87.604C141.106 91.1227 139.6 94.4326 138.043 97.4413C136.516 100.38 134.972 102.887 133.453 104.893C131.972 106.844 130.581 108.298 129.317 109.215C128.38 109.896 127.863 109.97 127.685 109.97C127.603 109.97 127.534 109.956 127.457 109.921C127.286 109.847 126.701 109.463 126.397 107.67C126.111 106.03 126.085 103.912 126.316 101.375C126.551 98.7956 127.089 95.8328 127.914 92.5687C128.739 89.3016 129.88 85.8467 131.304 82.299C132.737 78.7349 134.243 75.4253 135.783 72.4594C137.303 69.5232 138.848 66.9855 140.379 64.918C141.852 62.9237 143.241 61.4469 144.504 60.5283C145.441 59.8496 145.959 59.776 146.139 59.776C146.224 59.776 146.293 59.7899 146.359 59.8188C146.537 59.8977 147.15 60.2966 147.524 62.1136C147.859 63.7274 147.883 65.8501 147.597 68.4228ZM352.804 88.0836C352.081 86.9676 350.686 86.2461 349.251 86.2461C347.889 86.2461 346.666 86.8797 345.897 87.9863C345.015 89.2531 343.928 90.7575 342.665 92.4569C341.278 94.3211 339.781 96.1088 338.217 97.7689C336.662 99.4216 335.147 100.858 333.712 102.04C332.229 103.262 331.269 103.518 330.727 103.518C330.346 103.518 329.639 103.518 329.479 101.66C329.312 99.7146 329.602 97.1844 330.342 94.1397C331.097 91.0113 332.192 87.539 333.596 83.8185C335.026 80.032 336.462 76.4156 337.862 73.07C339.317 69.5923 340.567 66.7012 341.681 64.2313C342.793 61.7727 343.489 60.1729 343.755 59.4733C344.644 57.4476 344.319 55.4514 342.815 53.6973C341.434 52.0896 339.587 50.9631 337.325 50.3479C335.117 49.7472 332.709 49.7125 330.199 50.2442C327.511 50.8152 325.38 52.3592 323.866 54.8303C322.531 56.9996 320.795 60.4078 318.706 64.9599C316.608 69.5226 314.582 74.5887 312.683 80.0169C311.531 83.309 310.467 86.6561 309.505 90.0251C307.904 95.6294 304.611 100.61 300.07 104.296C298.444 105.615 296.734 106.859 294.955 108.015C294.168 108.527 293.376 109.001 292.582 109.435C292.33 109.572 292.068 109.271 292.242 109.045C293.614 107.25 294.963 105.311 296.28 103.238C298.993 98.9713 301.465 93.8606 303.628 88.0496C305.914 81.8966 307.349 76.2847 307.892 71.3672C308.438 66.3897 308.248 62.0461 307.324 58.4572C306.368 54.7522 304.696 51.8373 302.352 49.7932C299.926 47.6816 296.926 46.6105 293.441 46.6105C289.33 46.6105 285.552 47.691 282.212 49.8222C279.93 51.2776 277.816 52.9038 275.9 54.6772C275.741 54.8242 275.61 54.8065 275.494 54.6247C275.068 53.9515 274.495 53.3172 273.775 52.7239C272.154 51.3941 270.204 50.5033 267.976 50.0772C265.74 49.6555 263.468 49.8083 261.253 50.5305C258.884 51.3032 257.116 52.9012 256 55.281C253.857 59.8655 251.595 65.2164 249.274 71.1846C246.96 77.1442 244.703 83.3738 242.564 89.7011C242.327 90.403 242.091 91.1052 241.856 91.8071C240.05 97.2029 236.659 101.938 232.118 105.402C230.921 106.315 229.682 107.188 228.41 108.015C227.623 108.527 226.83 109.001 226.035 109.435C225.784 109.573 225.522 109.272 225.696 109.045C227.068 107.251 228.416 105.313 229.733 103.239C232.445 98.975 234.918 93.8652 237.083 88.0496C239.369 81.8962 240.803 76.284 241.346 71.3672C241.893 66.3874 241.704 62.0439 240.779 58.4572C239.824 54.7537 238.153 51.8388 235.808 49.7932C233.381 47.6812 230.381 46.6105 226.898 46.6105C222.784 46.6105 219.006 47.691 215.667 49.8215C213.384 51.2776 211.269 52.9038 209.355 54.676C209.197 54.8227 209.066 54.8061 208.95 54.6232C208.524 53.9512 207.95 53.3168 207.229 52.7247C205.61 51.3945 203.659 50.5041 201.428 50.0772C199.193 49.6548 196.92 49.8083 194.709 50.5305C192.343 51.3017 190.574 52.8993 189.452 55.2817C187.309 59.8734 185.047 65.2239 182.73 71.185C180.556 76.7856 178.441 82.5981 176.435 88.4811C174.921 92.9212 172.655 96.4882 169.273 99.7561C168.399 100.599 167.548 101.363 166.725 102.04C165.242 103.262 164.283 103.518 163.74 103.518C163.359 103.518 162.651 103.518 162.493 101.659C162.325 99.718 162.615 97.1885 163.355 94.1397C164.109 91.0128 165.204 87.5397 166.609 83.8185C168.023 80.0708 169.459 76.454 170.874 73.07C172.303 69.658 173.589 66.6838 174.695 64.2313C175.828 61.724 176.505 60.1661 176.765 59.4725C177.658 57.4476 177.333 55.4514 175.829 53.6973C174.444 52.0869 172.564 50.9585 170.237 50.3442C167.965 49.7464 165.563 49.7132 163.113 50.2461C160.49 50.8186 158.391 52.3615 156.879 54.8257C156.576 55.3138 156.261 55.8519 155.927 56.4493C155.808 56.6628 155.487 56.6149 155.436 56.3766C155.148 55.0305 154.684 53.7584 154.049 52.5761C153.098 50.8141 151.689 49.3685 149.864 48.2782C148.009 47.1717 145.654 46.6105 142.867 46.6105C136.294 46.6105 129.627 49.6238 123.052 55.5672C116.598 61.4038 111.249 70.714 107.148 83.2479C105.223 89.2916 104.094 94.8774 103.792 99.8523C103.487 104.887 103.896 109.232 105.006 112.764C106.149 116.407 107.975 119.282 110.436 121.309C112.972 123.405 116.021 124.467 119.495 124.467C122.066 124.467 124.519 124.027 126.785 123.157C128.982 122.314 131.019 121.23 132.839 119.937C134.24 118.942 135.544 117.817 136.728 116.58C137.573 115.698 139.06 116.055 139.408 117.221C139.797 118.528 140.34 119.691 141.034 120.703C142.752 123.2 145.47 124.467 149.112 124.467C153.147 124.467 157.224 122.964 161.229 120C163.096 118.62 164.921 117.114 166.688 115.496C167.086 115.132 167.712 115.522 167.556 116.035C166.524 119.444 165.597 122.603 164.763 125.567C163.356 130.548 162.212 134.839 161.361 138.32C160.223 142.99 160.076 144.259 160.076 144.844C160.076 147.707 160.971 150.147 162.738 152.1C164.446 153.977 166.423 155.323 168.624 156.103C170.071 156.614 171.485 156.872 172.821 156.872C173.561 156.872 174.291 156.792 174.991 156.635C176.568 156.281 178.57 155.237 179.153 152.275L179.162 152.218C179.394 150.658 179.836 148.545 180.477 145.936C181.143 143.229 181.951 140.148 182.881 136.777C183.798 133.425 184.847 129.691 186.086 125.361C186.658 123.36 187.271 121.263 187.924 119.085C188.058 118.641 188.66 118.571 188.893 118.971C189.182 119.469 189.506 119.956 189.862 120.428C191.87 123.101 195.072 124.459 199.383 124.467C200.248 124.506 201.117 124.526 201.966 124.526H201.968C208.305 124.526 214.258 123.445 219.658 121.315C224.819 119.281 229.547 116.797 233.758 113.92C234.171 113.638 234.712 114.031 234.566 114.508C233.358 118.464 232.267 122.167 231.308 125.567C229.894 130.584 228.748 134.874 227.905 138.32C226.768 142.998 226.621 144.264 226.621 144.844C226.621 147.707 227.516 150.146 229.284 152.1C230.99 153.978 232.97 155.324 235.169 156.103C236.618 156.613 238.028 156.872 239.365 156.872C240.105 156.872 240.836 156.792 241.539 156.635C243.115 156.281 245.115 155.236 245.699 152.275L245.71 152.217C245.94 150.652 246.384 148.539 247.024 145.936C247.688 143.23 248.495 140.149 249.425 136.777C250.348 133.41 251.397 129.677 252.632 125.361C253.205 123.356 253.819 121.259 254.47 119.083C254.602 118.64 255.205 118.569 255.438 118.969C255.728 119.469 256.053 119.955 256.409 120.428C258.414 123.1 261.617 124.459 265.929 124.467C266.794 124.506 267.663 124.526 268.513 124.526H268.513C274.85 124.526 280.803 123.445 286.205 121.315C292.251 118.933 297.715 115.935 302.446 112.402C303.251 111.801 304.035 111.193 304.798 110.579C305.148 110.298 305.67 110.551 305.662 110.998C305.659 111.199 305.657 111.398 305.657 111.596C305.657 115.354 306.452 118.417 308.021 120.703C309.739 123.2 312.457 124.467 316.099 124.467C320.127 124.467 324.231 122.967 328.296 120.007C332.16 117.196 335.809 113.872 339.142 110.127C342.428 106.436 345.316 102.757 347.728 99.1938C350.166 95.5864 351.807 93.1199 352.744 91.6525C353.493 90.4814 353.513 89.1803 352.804 88.0836ZM55.7164 108.184C56.2847 105.906 56.9311 103.516 57.6452 101.056C57.8067 100.5 58.6272 100.572 58.6866 101.147C58.8824 103.035 59.1288 104.894 59.4194 106.685C59.7462 108.712 60.1405 110.72 60.5933 112.656C61.0489 114.594 61.5658 116.478 62.1276 118.256C62.7 120.066 63.335 121.819 64.0111 123.466C64.6955 125.133 65.4455 126.75 66.2419 128.27C67.0365 129.792 67.9011 131.265 68.8137 132.648C69.7267 134.033 70.7079 135.353 71.7298 136.574C72.7678 137.814 73.8628 138.974 74.9899 140.022C75.9265 140.894 76.9107 141.714 77.9136 142.461C79.1561 143.386 80.4621 144.22 81.7945 144.941C83.1501 145.676 84.5659 146.31 85.9969 146.824C86.7404 147.092 87.4843 147.328 88.2079 147.525C88.9572 147.733 89.722 147.913 90.4845 148.061C92.0199 148.36 93.6067 148.547 95.1996 148.614C95.6635 148.634 96.1271 148.643 96.5914 148.643C97.7394 148.643 98.9159 148.584 100.09 148.465C101.74 148.297 103.426 148.009 105.102 147.608C106.779 147.207 108.499 146.683 110.213 146.049C111.929 145.41 113.674 144.649 115.396 143.787C116.29 143.339 117.171 142.869 118.013 142.394C119.688 141.449 121.386 140.389 123.06 139.242C124.818 138.037 126.62 136.69 128.414 135.236C129.157 134.633 129.904 134.007 130.648 133.364C132.165 132.053 132.426 129.82 131.252 128.203C130.079 126.585 127.853 126.111 126.107 127.105C125.569 127.412 125.029 127.705 124.494 127.98C123.095 128.702 121.676 129.333 120.274 129.856C118.905 130.368 117.528 130.784 116.179 131.097C114.856 131.404 113.53 131.616 112.232 131.729C110.955 131.841 109.675 131.858 108.445 131.782C107.215 131.704 105.993 131.533 104.813 131.271C103.632 131.009 102.457 130.65 101.324 130.202C100.174 129.747 99.0447 129.195 97.969 128.561C96.8629 127.908 95.7827 127.155 94.7566 126.321C93.7042 125.465 92.6819 124.503 91.7156 123.46C90.7218 122.387 89.7688 121.209 88.8829 119.959C87.9706 118.674 87.1026 117.277 86.3027 115.806C85.4861 114.306 84.719 112.689 84.0242 110.999C83.6761 110.157 83.3352 109.267 83.0111 108.353C82.5022 106.924 82.0287 105.413 81.6041 103.864C81.0567 101.861 80.576 99.7443 80.1757 97.572C79.7689 95.362 79.4349 93.0295 79.1835 90.6391C78.9641 88.5543 78.8056 86.3966 78.7089 84.2073C78.6959 83.9156 78.798 83.7713 79.0807 83.6833C83.5279 82.2977 87.8137 80.5779 91.8436 78.5612C96.7296 76.1129 101.058 73.1936 104.71 69.886C108.397 66.551 111.358 62.7498 113.512 58.5866C115.683 54.3859 116.783 49.7457 116.783 44.7965C116.783 40.2025 115.53 36.0991 113.057 32.6002C110.628 29.1606 107.407 26.2364 103.485 23.9081C99.6111 21.6068 95.1512 19.8566 90.2293 18.7055C85.3482 17.5658 80.3403 16.988 75.3449 16.988C66.5745 16.988 58.6504 18.4243 51.7944 21.2576C44.9814 24.0739 39.2093 27.5123 34.6379 31.4743C30.0596 35.442 26.5253 39.6413 24.1321 43.9544C21.6784 48.3808 20.4851 52.0436 20.4851 55.1523C20.4851 58.7137 21.3288 61.6014 22.9937 63.7336C24.6475 65.854 26.4979 67.3017 28.496 68.0373C30.573 68.803 32.594 68.8884 34.4295 68.2986C36.5229 67.6283 37.6759 66.0713 37.6759 63.9144C37.6759 60.9075 38.5763 57.2916 40.349 53.1664C42.1388 49.0055 44.6869 44.9931 47.9207 41.2408C51.135 37.5065 55.0704 34.2895 59.619 31.6769C64.0564 29.1257 69.1055 27.8322 74.6284 27.8322C79.8135 27.8322 83.9214 29.0501 86.8371 31.4533C89.7174 33.8286 91.1785 37.6742 91.1785 42.882C91.1785 46.9324 90.3447 50.7779 88.7004 54.3126C87.0386 57.8863 84.8283 61.1744 82.1323 64.0862C79.4273 67.0051 76.3348 69.577 72.9388 71.7295C70.8679 73.0425 68.7467 74.192 66.6007 75.1679C66.1722 75.3622 65.7182 74.9525 65.8767 74.5146C67.4852 70.0586 69.1931 65.4789 70.9726 60.8488C73.1711 55.1324 75.6332 49.2604 78.3025 43.3737C79.3477 41.0664 78.0073 38.3899 75.5151 37.8099C71.3775 36.846 66.4922 36.6874 60.8603 37.3328C58.3727 37.6178 56.2161 39.1639 55.1717 41.4096C51.9833 48.265 49.0478 55.2174 46.4261 62.1254C43.3782 70.1642 40.7207 77.7162 38.5291 84.5731C36.3199 91.4808 34.5952 97.5986 33.403 102.755C32.1769 108.042 31.5808 111.755 31.5808 114.104C31.5808 116.989 32.5875 119.44 34.5708 121.389C36.4612 123.246 38.6243 124.575 40.9999 125.34C43.4117 126.113 45.7511 126.29 47.9287 125.865C50.4574 125.374 52.0412 123.868 52.5142 121.479C52.7458 120.133 53.1595 118.289 53.7464 115.998C54.3414 113.659 55.0007 111.053 55.7164 108.184Z" fill="url(#paint0_linear_2004_606)" fill-opacity="0.3"/>
</g>
<defs>
<linearGradient id="paint0_linear_2004_606" x1="190.854" y1="156.872" x2="190.854" y2="2.61208" gradientUnits="userSpaceOnUse">
<stop stop-color="#E02207"/>
<stop offset="1" stop-color="#FF2801"/>
</linearGradient>
</defs>
</svg>
