<svg width="115" height="60" viewBox="0 0 115 60" fill="none" xmlns="http://www.w3.org/2000/svg">
<g filter="url(#filter0_i_2001_56)">
<path d="M109.535 13.0693C105.456 19.1631 100.807 20.7217 94.0105 18.0652C90.8854 16.8447 87.9356 15.1845 84.8064 13.976C82.3858 13.0409 79.8518 12.1489 77.2974 11.856C72.8747 11.3452 68.9624 12.969 65.9044 16.1666C63.8278 18.3393 62.0715 20.8225 60.2495 23.2292C59.9934 23.5639 59.7869 23.7658 59.5394 23.8213C59.2972 23.897 59.0191 23.8249 58.6283 23.6636C55.8488 22.4899 53.084 21.2163 50.1998 20.3747C45.9577 19.1331 41.7526 19.6843 38.1778 22.338C36.112 23.8689 34.364 25.9101 32.7348 27.9285C30.6291 30.5397 28.9046 33.4524 26.8084 36.072C22.2505 41.7709 17.4457 42.7453 10.8661 39.5075C10.3239 39.2401 9.78209 38.9745 9.24078 38.7105C11.2109 42.8883 13.9767 46.3679 17.4604 49.2642C21.9062 52.9615 27.008 55.0949 32.7943 55.4666C46.3194 56.3365 60.4195 46.2961 62.2631 33.9798C70.0179 43.7242 87.2475 45.3699 98.5273 37.8535C103.353 34.6384 106.704 30.2383 108.706 24.8151C110.273 20.5655 110.93 16.1687 110.547 11.5655C110.207 12.064 109.871 12.5667 109.535 13.0693Z" fill="url(#paint0_linear_2001_56)"/>
</g>
<path d="M90.2652 14.2082C88.7555 13.494 87.1708 12.7451 85.527 12.1103C83.0982 11.172 80.3568 10.1939 77.5269 9.86919C72.414 9.27867 67.9002 11.1859 64.4589 14.7843L64.4585 14.7847C62.668 16.6581 61.0954 18.7621 59.6118 20.747C59.39 21.0438 59.1702 21.338 58.9519 21.6283C58.6225 21.4879 58.2899 21.3451 57.9544 21.201C55.6731 20.2214 53.2528 19.1821 50.76 18.4547C45.9853 17.0577 41.1184 17.6649 36.987 20.7312C34.6977 22.4277 32.8124 24.6482 31.1785 26.6723L31.1779 26.6731C30.0717 28.0448 29.0738 29.4857 28.1234 30.859L28.105 30.8856C27.1477 32.2691 26.2375 33.5844 25.2468 34.8224L25.2465 34.8228C23.1385 37.4585 21.1653 38.7626 19.1796 39.1847C17.185 39.6087 14.8131 39.2207 11.7498 37.7134C11.2053 37.4448 10.6611 37.178 10.1175 36.9128L5.00648 34.4203L7.43182 39.5635C9.5326 44.0185 12.4845 47.7283 16.1818 50.8022C20.9347 54.7548 26.4344 57.0622 32.6661 57.4624C39.9487 57.9308 47.307 55.467 53.0817 51.2883C57.7763 47.8912 61.547 43.2673 63.3371 37.9881C67.5269 41.6649 73.104 43.7842 78.8681 44.3789C85.9583 45.1104 93.5628 43.565 99.6362 39.5178C104.833 36.0552 108.442 31.3052 110.582 25.5078L110.582 25.5071C112.245 20.9977 112.948 16.3087 112.54 11.3998L112.074 5.78665L108.896 10.4372C108.549 10.9449 108.208 11.4554 107.873 11.9558L107.873 11.9568C107.873 11.9569 107.873 11.9571 107.872 11.9572C105.973 14.7944 104.113 16.3164 102.174 16.9465C100.243 17.5739 97.882 17.4311 94.7386 16.2024L94.7381 16.2022C93.2611 15.6254 91.8152 14.9414 90.2943 14.222L90.2652 14.2082Z" stroke="#FE2D01" stroke-opacity="0.5" stroke-width="4"/>
<defs>
<filter id="filter0_i_2001_56" x="0.772173" y="-7.99223" width="113.881" height="67.5115" filterUnits="userSpaceOnUse" color-interpolation-filters="sRGB">
<feFlood flood-opacity="0" result="BackgroundImageFix"/>
<feBlend mode="normal" in="SourceGraphic" in2="BackgroundImageFix" result="shape"/>
<feColorMatrix in="SourceAlpha" type="matrix" values="0 0 0 0 0 0 0 0 0 0 0 0 0 0 0 0 0 0 127 0" result="hardAlpha"/>
<feOffset dy="-8"/>
<feGaussianBlur stdDeviation="12"/>
<feComposite in2="hardAlpha" operator="arithmetic" k2="-1" k3="1"/>
<feColorMatrix type="matrix" values="0 0 0 0 1 0 0 0 0 1 0 0 0 0 1 0 0 0 1 0"/>
<feBlend mode="overlay" in2="shape" result="effect1_innerShadow_2001_56"/>
</filter>
<linearGradient id="paint0_linear_2001_56" x1="66.0257" y1="48.0218" x2="57.4954" y2="16.1864" gradientUnits="userSpaceOnUse">
<stop stop-color="#FF5100"/>
<stop offset="0.7" stop-color="#FF9100"/>
<stop offset="1" stop-color="#FFB048"/>
</linearGradient>
</defs>
</svg>
