<svg width="135" height="142" viewBox="0 0 135 142" fill="none" xmlns="http://www.w3.org/2000/svg">
<g filter="url(#filter0_b_2004_616)">
<mask id="path-1-outside-1_2004_616" maskUnits="userSpaceOnUse" x="0.5" y="0.5" width="134" height="141" fill="black">
<rect fill="white" x="0.5" y="0.5" width="134" height="141"/>
<path fill-rule="evenodd" clip-rule="evenodd" d="M42.9352 71.9805L99.636 5.82618C103.958 0.783249 112.131 4.57032 111.154 11.1591L103.868 56.5703L123.593 56.5723C130.268 56.5723 133.995 64.0919 130.28 69.3678L129.776 70.0148L73.0753 136.176C68.7619 141.209 60.4773 137.443 61.5572 130.843L68.8362 85.4281L49.118 85.4302C42.4439 85.4302 38.7256 77.9201 42.4216 72.6427L42.9352 71.9805ZM37.25 10.25C33.5221 10.25 30.5 13.2721 30.5 17C30.5 20.7279 33.5221 23.75 37.25 23.75H64.25C67.9779 23.75 71 20.7279 71 17C71 13.2721 67.9779 10.25 64.25 10.25H37.25ZM10.25 37.25C6.52208 37.25 3.5 40.2721 3.5 44C3.5 47.7279 6.52208 50.75 10.25 50.75H50.75C54.4779 50.75 57.5 47.7279 57.5 44C57.5 40.2721 54.4779 37.25 50.75 37.25H10.25ZM10.25 71C10.25 67.2721 13.2721 64.25 17 64.25H30.5C34.2279 64.25 37.25 67.2721 37.25 71C37.25 74.7279 34.2279 77.75 30.5 77.75H17C13.2721 77.75 10.25 74.7279 10.25 71Z"/>
</mask>
<path fill-rule="evenodd" clip-rule="evenodd" d="M42.9352 71.9805L99.636 5.82618C103.958 0.783249 112.131 4.57032 111.154 11.1591L103.868 56.5703L123.593 56.5723C130.268 56.5723 133.995 64.0919 130.28 69.3678L129.776 70.0148L73.0753 136.176C68.7619 141.209 60.4773 137.443 61.5572 130.843L68.8362 85.4281L49.118 85.4302C42.4439 85.4302 38.7256 77.9201 42.4216 72.6427L42.9352 71.9805ZM37.25 10.25C33.5221 10.25 30.5 13.2721 30.5 17C30.5 20.7279 33.5221 23.75 37.25 23.75H64.25C67.9779 23.75 71 20.7279 71 17C71 13.2721 67.9779 10.25 64.25 10.25H37.25ZM10.25 37.25C6.52208 37.25 3.5 40.2721 3.5 44C3.5 47.7279 6.52208 50.75 10.25 50.75H50.75C54.4779 50.75 57.5 47.7279 57.5 44C57.5 40.2721 54.4779 37.25 50.75 37.25H10.25ZM10.25 71C10.25 67.2721 13.2721 64.25 17 64.25H30.5C34.2279 64.25 37.25 67.2721 37.25 71C37.25 74.7279 34.2279 77.75 30.5 77.75H17C13.2721 77.75 10.25 74.7279 10.25 71Z" fill="#FF9812" fill-opacity="0.3"/>
<path d="M99.636 5.82618L97.7141 4.17887L97.714 4.17892L99.636 5.82618ZM42.9352 71.9805L41.0133 70.3332C40.9865 70.3645 40.9604 70.3965 40.9351 70.4291L42.9352 71.9805ZM111.154 11.1591L113.653 11.5601C113.655 11.5501 113.656 11.5402 113.658 11.5302L111.154 11.1591ZM103.868 56.5703L101.368 56.1693C101.251 56.9013 101.46 57.6479 101.941 58.2122C102.422 58.7764 103.126 59.1015 103.867 59.1015L103.868 56.5703ZM123.593 56.5723L123.593 59.1036H123.593V56.5723ZM130.28 69.3678L132.277 70.9222C132.302 70.8905 132.326 70.8581 132.349 70.8252L130.28 69.3678ZM129.776 70.0148L131.698 71.662C131.724 71.6317 131.749 71.6008 131.774 71.5693L129.776 70.0148ZM73.0753 136.176L74.9971 137.824L74.9973 137.823L73.0753 136.176ZM61.5572 130.843L64.0553 131.252L64.0566 131.244L61.5572 130.843ZM68.8362 85.4281L71.3355 85.8287C71.4529 85.0967 71.2434 84.3501 70.7624 83.7859C70.2814 83.2217 69.5773 82.8968 68.8359 82.8969L68.8362 85.4281ZM49.118 85.4302L49.118 87.9614L49.1183 87.9614L49.118 85.4302ZM42.4216 72.6427L40.4215 71.0913C40.3963 71.1238 40.3718 71.1569 40.3482 71.1906L42.4216 72.6427ZM97.714 4.17892L41.0133 70.3332L44.8572 73.6277L101.558 7.47345L97.714 4.17892ZM113.658 11.5302C114.996 2.50035 103.736 -2.84628 97.7141 4.17887L101.558 7.4735C104.181 4.41278 109.265 6.6403 108.65 10.7879L113.658 11.5302ZM106.367 56.9713L113.653 11.5601L108.655 10.758L101.368 56.1693L106.367 56.9713ZM123.593 54.0411L103.868 54.039L103.867 59.1015L123.593 59.1036L123.593 54.0411ZM132.349 70.8252C137.225 63.9019 132.355 54.0411 123.593 54.0411V59.1036C128.18 59.1036 130.765 64.2819 128.21 67.9103L132.349 70.8252ZM131.774 71.5693L132.277 70.9222L128.282 67.8133L127.778 68.4604L131.774 71.5693ZM74.9973 137.823L131.698 71.662L127.854 68.3677L71.1533 134.529L74.9973 137.823ZM59.0592 130.435C57.5564 139.618 69.0566 144.754 74.9971 137.824L71.1534 134.529C68.4671 137.663 63.3981 135.268 64.0552 131.252L59.0592 130.435ZM66.3368 85.0276L59.0579 130.443L64.0566 131.244L71.3355 85.8287L66.3368 85.0276ZM49.1183 87.9614L68.8365 87.9594L68.8359 82.8969L49.1178 82.8989L49.1183 87.9614ZM40.3482 71.1906C35.5018 78.1106 40.3532 87.9614 49.118 87.9614V82.8989C44.5347 82.8989 41.9493 77.7296 44.4949 74.0947L40.3482 71.1906ZM40.9351 70.4291L40.4215 71.0913L44.4217 74.1941L44.9354 73.5318L40.9351 70.4291ZM33.0312 17C33.0312 14.67 34.92 12.7812 37.25 12.7812V7.71875C32.1241 7.71875 27.9687 11.8741 27.9687 17H33.0312ZM37.25 21.2187C34.92 21.2187 33.0312 19.3299 33.0312 17H27.9687C27.9687 22.1259 32.1241 26.2812 37.25 26.2812V21.2187ZM64.25 21.2187H37.25V26.2812H64.25V21.2187ZM68.4687 17C68.4687 19.3299 66.5799 21.2187 64.25 21.2187V26.2812C69.3759 26.2812 73.5312 22.1259 73.5312 17H68.4687ZM64.25 12.7812C66.5799 12.7812 68.4687 14.67 68.4687 17H73.5312C73.5312 11.8741 69.3759 7.71875 64.25 7.71875V12.7812ZM37.25 12.7812H64.25V7.71875H37.25V12.7812ZM6.03125 44C6.03125 41.67 7.92005 39.7812 10.25 39.7812V34.7187C5.12411 34.7187 0.96875 38.8741 0.96875 44H6.03125ZM10.25 48.2187C7.92005 48.2187 6.03125 46.3299 6.03125 44H0.96875C0.96875 49.1259 5.12411 53.2812 10.25 53.2812V48.2187ZM50.75 48.2187H10.25V53.2812H50.75V48.2187ZM54.9687 44C54.9687 46.3299 53.0799 48.2187 50.75 48.2187V53.2812C55.8759 53.2812 60.0312 49.1259 60.0312 44H54.9687ZM50.75 39.7812C53.0799 39.7812 54.9687 41.67 54.9687 44H60.0312C60.0312 38.8741 55.8759 34.7187 50.75 34.7187V39.7812ZM10.25 39.7812H50.75V34.7187H10.25V39.7812ZM17 61.7188C11.8741 61.7188 7.71872 65.8741 7.71872 71H12.7812C12.7812 68.6701 14.67 66.7813 17 66.7813V61.7188ZM30.5 61.7188H17V66.7813H30.5V61.7188ZM39.7812 71C39.7812 65.8741 35.6259 61.7188 30.5 61.7188V66.7813C32.8299 66.7813 34.7187 68.6701 34.7187 71H39.7812ZM30.5 80.2813C35.6259 80.2813 39.7812 76.1259 39.7812 71H34.7187C34.7187 73.33 32.8299 75.2188 30.5 75.2188V80.2813ZM17 80.2813H30.5V75.2188H17V80.2813ZM7.71872 71C7.71872 76.1259 11.8741 80.2813 17 80.2813V75.2188C14.67 75.2188 12.7812 73.33 12.7812 71H7.71872Z" fill="white" mask="url(#path-1-outside-1_2004_616)"/>
</g>
<defs>
<filter id="filter0_b_2004_616" x="-6.45625" y="-6.47438" width="148.164" height="154.932" filterUnits="userSpaceOnUse" color-interpolation-filters="sRGB">
<feFlood flood-opacity="0" result="BackgroundImageFix"/>
<feGaussianBlur in="BackgroundImageFix" stdDeviation="3.7125"/>
<feComposite in2="SourceAlpha" operator="in" result="effect1_backgroundBlur_2004_616"/>
<feBlend mode="normal" in="SourceGraphic" in2="effect1_backgroundBlur_2004_616" result="shape"/>
</filter>
</defs>
</svg>
